<svg width="132" height="158" viewBox="0 0 132 158" fill="none" xmlns="http://www.w3.org/2000/svg">
  <path fill-rule="evenodd" clip-rule="evenodd"
    d="M62.7134 4.76485C62.8926 4.58845 64.5652 3.44564 66.4305 2.22562C68.2959 1.00561 70.0583 0.00400242 70.3472 2.38228e-06C70.8368 -0.00679768 90.193 14.5461 94.5071 18.1646L96.4487 19.793L94.3539 20.0558C93.202 20.2002 92.1254 20.5362 91.9618 20.8018C91.7488 21.147 90.4177 21.2422 87.2942 21.135C83.763 21.0138 82.7875 20.8478 82.2109 20.2694C81.8183 19.8762 77.1974 16.299 71.9424 12.3201C66.6871 8.34128 62.5342 4.94165 62.7134 4.76485ZM48.1815 14.9161C48.0954 14.6537 49.7776 13.2641 51.9194 11.8285L55.8138 9.21769L57.2318 10.2953C58.0119 10.8881 63.3953 15.1361 69.1953 19.7354L79.7402 28.0975L90.3427 27.4371C96.1738 27.0739 102.024 26.6743 103.342 26.5487L105.739 26.3207L112.519 31.2751C122.926 38.88 131.792 45.5408 131.966 45.884C132.052 46.054 131.808 52.2233 131.424 59.5934C131.041 66.9634 130.711 74.0735 130.692 75.3935C130.642 78.9936 130.492 79.092 127.024 77.8212C124.32 76.8299 123.381 76.5003 123.072 75.8643C122.899 75.5091 122.923 75.0584 122.946 74.3435C122.977 73.3811 123.041 68.0035 123.088 62.3934L123.174 52.1933L120.638 50.1597C119.243 49.0409 114.817 45.576 110.803 42.4596L103.504 36.7932L100.229 36.8044C98.4281 36.8104 92.9147 37.0752 87.977 37.3932C83.0392 37.7112 78.3689 37.976 77.5984 37.982C76.3738 37.992 75.1413 37.138 67.8227 31.2107C50.6622 17.313 48.3344 15.3818 48.1815 14.9161ZM56.6321 17.0446C57.9572 16.1742 58.0263 14.3009 56.7654 13.4157C55.5716 12.5773 55.0417 12.6301 54.0613 13.6853C53.0099 14.8161 53.1687 15.8934 54.5373 16.9138C55.5552 17.673 55.6653 17.6798 56.6321 17.0446ZM32.9582 25.3626C32.4974 24.939 33.129 24.3738 36.7045 22.0114C40.45 19.5366 41.0884 19.2402 41.6478 19.7154C42.0013 20.015 46.8692 24.1286 52.4653 28.8559C58.0614 33.5835 65.056 39.578 68.0086 42.1772L73.3773 46.9029L77.1858 46.6445C79.2806 46.5024 84.5854 46.1192 88.9745 45.7928C93.3635 45.4664 97.909 45.198 99.0757 45.1964L101.197 45.1932L108.951 51.2649L116.705 57.3366V68.8363V80.336L118.8 81.1016C119.952 81.5228 122.933 82.5696 125.424 83.4284L129.952 84.99L129.702 90.5917C129.387 97.6228 129.369 99.6535 128.417 101.044C127.942 101.737 127.235 102.271 126.143 103.187C124.573 104.502 123.047 105.582 122.752 105.586C122.315 105.592 122.239 104.162 122.345 97.9541L122.476 90.3149L115.712 87.8241C109.905 85.686 108.908 85.196 108.676 84.3636C108.527 83.83 108.369 80.6036 108.324 77.1936C108.279 73.7835 108.126 69.4391 107.985 67.5395L107.728 64.085L102.341 59.6018L96.9546 55.1185L92.5655 55.3585C90.1515 55.4901 83.8907 55.7841 78.6525 56.0113L69.1286 56.4241L66.8603 54.3089C65.613 53.1453 63.2764 51.1133 61.668 49.7933C57.3819 46.2752 34.8615 27.1119 32.9582 25.3626ZM17.361 35.0419C17.3654 34.7951 19.2056 33.3791 21.4508 31.8955C23.6957 30.4119 25.6261 29.1967 25.741 29.1955C26.0155 29.1923 42.9015 44.4364 43.7218 45.4276C44.3064 46.134 44.1895 47.0553 42.2076 57.3622L40.0597 68.5315L42.1725 70.7031C43.3348 71.8979 47.1509 75.5119 50.6526 78.7344C54.1543 81.9568 59.3613 86.7976 62.2238 89.4913L67.4281 94.3889L67.861 97.4913C68.0992 99.1978 68.8948 103.325 69.6286 106.662L70.9633 112.73L67.4811 118.562C65.5659 121.77 63.7564 124.394 63.4603 124.394C62.9009 124.394 62.3312 122.215 59.4148 108.924L57.9074 102.055L45.5106 89.6845C38.692 82.8808 31.8957 76.1619 30.4074 74.7539L27.7013 72.1935L29.7486 62.3934C30.8746 57.0034 31.8805 51.7833 31.9842 50.7933L32.1726 48.9933L24.7626 42.242C20.6871 38.5284 17.3562 35.2883 17.361 35.0419ZM26.051 37.1132C26.8446 36.3176 26.62 34.5019 25.6428 33.8159C25.1552 33.4735 24.6565 33.1931 24.5348 33.1931C23.7256 33.1931 22.5397 34.5855 22.5397 35.5359C22.5397 36.9124 23.1997 37.5932 24.5348 37.5932C25.1054 37.5932 25.7877 37.3772 26.051 37.1132ZM1.09308 45.8932C1.14894 45.7256 3.07934 44.33 5.38321 42.7916C7.68708 41.2532 9.66735 39.9944 9.78346 39.994C9.89997 39.9936 12.95 42.8436 16.5618 46.3276L23.1287 52.6625L21.9847 58.6278C21.3559 61.909 20.6808 64.7682 20.4848 64.9818C20.1162 65.3842 0.901157 46.47 1.09308 45.8932ZM1.82566 56.2389C0.929088 53.8441 0.195312 51.5949 0.195312 51.2409C0.195312 50.8869 7.46722 57.8854 16.3551 66.7934C25.243 75.7015 32.5149 83.1064 32.5149 83.2488C32.5149 83.3908 31.2812 83.8104 29.7729 84.1812L27.031 84.8548L17.6866 75.3239C6.28867 63.6993 4.13699 61.6094 2.93402 59.0701C2.5566 58.2734 2.27256 57.4325 1.82566 56.2389ZM50.2472 61.0806C50.6063 59.0526 51.0855 56.4481 51.3122 55.2933C51.5384 54.1385 51.8456 53.1933 51.9949 53.1933C52.1437 53.1933 54.1655 54.9485 56.4877 57.0934C58.8095 59.2386 62.4006 62.433 64.4678 64.1926C75.2171 73.3431 84.6149 81.942 84.6261 82.6376C84.6329 83.0536 85.4225 89.7961 86.3809 97.6209L88.1238 111.848L81.5154 122.44L74.9075 133.031L75.8459 137.813C76.3622 140.443 76.7876 142.954 76.7916 143.394C76.796 143.922 75.5878 145.18 73.2364 147.094C70.1078 149.641 68.8246 150.433 68.8246 149.816C68.8246 149.718 67.9176 145.744 66.8088 140.984L64.7934 132.33L71.6153 121.505L78.4375 110.68L76.7325 99.747L75.028 88.8145L67.8363 82.1392C63.8809 78.468 58.1583 73.0575 55.1195 70.1163L49.594 64.7682L50.2472 61.0806ZM56.8252 64.1394C57.897 62.7738 57.8678 62.173 56.6728 60.9754C56.1342 60.4354 55.3262 59.9934 54.8773 59.9934C53.7074 59.9934 52.4653 61.403 52.4653 62.7314C52.4653 65.1298 55.3238 66.053 56.8252 64.1394ZM80.4956 64.7578C80.9895 64.7382 83.9071 64.4922 86.9794 64.2106C90.0518 63.9294 92.9035 63.6754 93.3165 63.6462C94.2956 63.5774 100.718 68.7543 100.942 69.7935C101.036 70.2335 101.747 81.1236 102.521 93.9937C103.294 106.864 104.006 118.294 104.103 119.394L104.278 121.394L100.691 124.348C98.6863 125.998 96.9574 127.146 96.7739 126.948C96.5931 126.753 95.5338 116.27 94.4197 103.652C93.2343 90.2237 92.2076 80.484 91.9439 80.1656C91.6773 79.8436 91.5916 79.0028 91.7344 78.1076C91.8669 77.2747 91.8389 76.4091 91.6722 76.1835C91.505 75.9579 88.7203 73.4611 85.4832 70.6355C82.246 67.8095 79.5978 65.339 79.5978 65.1454C79.5978 64.9518 80.0016 64.7774 80.4956 64.7578ZM8.25008 73.1935C7.37385 70.8835 6.74023 68.8583 6.84158 68.6935C7.21625 68.0827 7.71381 68.4859 11.7769 72.6935C14.0604 75.0583 18.5161 79.64 21.6783 82.8744L27.428 88.7549L31.2126 87.9744C33.2938 87.5448 35.3826 87.1936 35.8542 87.1936C36.4388 87.1936 39.4165 89.9077 45.2117 95.7221L53.7122 104.251L54.7205 108.753C55.2751 111.229 55.6043 113.377 55.4519 113.525C55.2994 113.673 50.7496 109.243 45.341 103.681C37.5875 95.7065 35.2964 93.5701 34.51 93.5817C33.9613 93.5897 31.9495 93.8705 30.0391 94.2053L26.5657 94.8145L20.4457 88.5041C12.4463 80.2563 10.5742 78.3871 9.44966 76.1431C9.03764 75.3209 8.72598 74.4485 8.25008 73.1935ZM14.6813 90.0689C13.7608 87.7176 12.9979 85.4356 12.9855 84.998C12.9596 84.0588 13.0872 84.1848 27.1483 98.9938L37.0233 109.394L39.7565 115.138C41.26 118.297 42.4901 120.952 42.4901 121.038C42.4901 121.708 40.347 119.581 29.1178 107.769L16.3551 94.3445L14.6813 90.0689ZM109.771 116.394C109.37 116.394 109.144 112.751 108.897 102.294C108.758 96.4089 108.797 91.6033 108.984 91.6149C109.171 91.6269 110.94 92.2217 112.915 92.9369L116.506 94.2373L116.614 102.489L116.721 110.741L113.346 113.567C111.489 115.122 109.88 116.394 109.771 116.394ZM30.249 98.5322C30.393 98.3874 31.1862 98.1382 32.0118 97.9774C34.9592 97.4045 35.0538 97.4505 38.8117 101.279L42.4291 104.965L46.7172 114.651L51.0049 124.337L56.044 129.674L61.0831 135.012L62.1939 138.936C62.8048 141.095 63.1862 142.98 63.041 143.125C62.794 143.373 53.0478 133.483 49.063 128.942C47.6373 127.316 46.4491 125.008 43.3567 117.853C41.2062 112.877 40.2973 110.662 38.9924 108.713C37.7479 106.854 36.1433 105.236 32.7579 101.694C31.2337 100.099 30.1049 98.6766 30.249 98.5322ZM53.3955 122.758C52.0998 121.013 51.2776 118.916 48.5869 112.094C48.059 110.755 49.5613 111.971 53.1332 115.773L57.0595 119.952L58.1631 124.03C58.7704 126.274 59.1554 128.218 59.0186 128.351C58.8821 128.485 57.3767 127.125 55.6733 125.329C54.6701 124.271 53.984 123.551 53.3955 122.758ZM84.4086 127.907C85.7892 125.645 87.3385 123.119 87.8517 122.294C88.3652 121.469 88.9294 120.794 89.1061 120.794C89.3902 120.794 90.9412 132.432 90.6758 132.571C90.618 132.601 89.01 133.924 87.1031 135.51C85.1959 137.097 83.467 138.394 83.2615 138.394C83.0556 138.394 82.665 136.96 82.3928 135.207L81.8985 132.02L84.4086 127.907Z"
    fill="url(#paint0_linear_1417_6598)" />
  <path
    d="M108.337 155.092C107.737 155.092 107.831 155.257 103.466 154.915C100.207 154.659 96.7672 154.69 92.5122 155.013C87.9013 155.364 84.9327 155.373 80.941 155.047C75.1175 154.573 39.5771 154.163 35.9178 154.915C34.1653 155.275 29.1178 156.238 29.1178 156.779C29.1178 157.45 61.9375 157.461 85.2483 157.461C98.7998 157.461 110.995 157.802 111.284 157.12L111.195 156.602L110.984 156.071C110.052 155.682 108.995 155.092 108.337 155.092Z"
    fill="url(#paint1_linear_1417_6598)" fill-opacity="0.18" />
  <defs>
    <linearGradient id="paint0_linear_1417_6598" x1="66.0893" y1="0" x2="66.0893" y2="157.571"
      gradientUnits="userSpaceOnUse">
      <stop offset="0.34375" stop-color="#7111AD" />
      <stop offset="0.729167" stop-color="#16AC49" />
    </linearGradient>
    <linearGradient id="paint1_linear_1417_6598" x1="66.0893" y1="0" x2="66.0893" y2="157.546"
      gradientUnits="userSpaceOnUse">
      <stop stop-color="#999999" />
      <stop offset="0.302083" stop-color="#7F7F7F" />
      <stop offset="0.630208" stop-color="#7F7F7F" />
    </linearGradient>
  </defs>
</svg>
