<svg xmlns="http://www.w3.org/2000/svg" width="24" height="24" id="info">
  <path
    d="M12 24C5.4 24 0 18.6 0 12S5.4 0 12 0s12 5.4 12 12-5.4 12-12 12zm0-22C6.5 2 2 6.5 2 12s4.5 10 10 10 10-4.5 10-10S17.5 2 12 2z"
    >
  </path>
  <path
    d="M11 18c-.4 0-.7-.2-1-.5-.5-.7-.1-1.7 1-4.4.2-.4.4-.9.6-1.3-.4.3-1 .3-1.4-.1-.4-.4-.4-1 0-1.4.2-.1 1.4-1.3 2.8-1.3.4 0 .7.2 1 .5.5.7.1 1.7-1 4.4-.2.4-.4.9-.6 1.3.4-.3 1-.3 1.4.1.4.4.4 1 0 1.4-.2.1-1.4 1.3-2.8 1.3z"
    >
  </path>
  <circle cx="13.5" cy="6.5" r="1.5"></circle>
  <path d="M13.5 8.5c-1.1 0-2-.9-2-2s.9-2 2-2 2 .9 2 2-.9 2-2 2zm0-3c-.6 0-1 .4-1 1s.4 1 1 1 1-.4 1-1-.4-1-1-1z"
    ></path>
</svg>
