<svg viewBox="0 0 32 32" id="svg5" version="1.1" xmlns="http://www.w3.org/2000/svg"
  xmlns:svg="http://www.w3.org/2000/svg">
  <g id="SVGRepo_bgCarrier" stroke-width="0"></g>
  <g id="SVGRepo_tracerCarrier" stroke-linecap="round" stroke-linejoin="round"></g>
  <g id="SVGRepo_iconCarrier">
    <defs id="defs2"></defs>
    <g id="layer1" transform="translate(-108,-52)">
      <path d="m 123,70.999997 a 1,1 0 0 0 -1,1 1,1 0 0 0 1,1 h 10 a 1,1 0 0 0 1,-1 1,1 0 0 0 -1,-1 z" id="path4719"
        style="color:#ffffff;fill:#ffffff;fill-rule:evenodd;stroke-linecap:round;stroke-linejoin:round;stroke-miterlimit:4.1;-inkscape-stroke:none">
      </path>
      <path d="m 123,67 a 1,1 0 0 0 -1,1 1,1 0 0 0 1,1 h 10 a 1,1 0 0 0 1,-1 1,1 0 0 0 -1,-1 z" id="path6043"
        style="color:#ffffff;fill:#ffffff;fill-rule:evenodd;stroke-linecap:round;stroke-linejoin:round;stroke-miterlimit:4.1;-inkscape-stroke:none">
      </path>
      <path d="m 123,74.999997 a 1,1 0 0 0 -1,1 1,1 0 0 0 1,1 h 10 a 1,1 0 0 0 1,-1 1,1 0 0 0 -1,-1 z" id="path6045"
        style="color:#ffffff;fill:#ffffff;fill-rule:evenodd;stroke-linecap:round;stroke-linejoin:round;stroke-miterlimit:4.1;-inkscape-stroke:none">
      </path>
      <path
        d="m 113,54 c -1.6447,0 -3,1.355301 -3,3 v 13.999997 c 0,1.6447 1.3553,3 3,3 h 1 v 1 c 0,1.6447 1.3553,3 3,3 h 1 v 1 c 0,1.6447 1.3553,3 3,3 h 14 c 1.6447,0 3,-1.3553 3,-3 V 65 c 0,-1.644699 -1.3553,-3 -3,-3 h -1 v -1 c 0,-1.644699 -1.3553,-3 -3,-3 h -1 v -1 c 0,-1.644699 -1.3553,-3 -3,-3 z m 0,2 h 14 c 0.57129,0 1,0.428706 1,1 v 1 h -11 c -1.6447,0 -3,1.355301 -3,3 v 10.999997 h -1 c -0.57129,0 -1,-0.4287 -1,-1 V 57 c 0,-0.571294 0.42871,-1 1,-1 z m 4,4 h 14 c 0.57129,0 1,0.428706 1,1 v 1 h -11 c -1.6447,0 -3,1.355301 -3,3 v 10.999997 h -1 c -0.57129,0 -1,-0.4287 -1,-1 V 61 c 0,-0.571294 0.42871,-1 1,-1 z m 4,4 c 4.66667,0 9.33333,0 14,0 0.5713,0 1,0.428704 1,1 v 13.999997 c 0,0.5713 -0.4287,1 -1,1 h -14 c -0.5713,0 -1,-0.4287 -1,-1 0,-4.66666 0,-9.33333 0,-13.999997 0,-0.571296 0.4287,-1 1,-1 z"
        id="path42342"
        style="color:#ffffff;fill:#ffffff;fill-rule:evenodd;stroke-linecap:round;stroke-linejoin:round;stroke-miterlimit:4.1;-inkscape-stroke:none">
      </path>
    </g>
  </g>
</svg>
